<svg xmlns="http://www.w3.org/2000/svg" xmlns:xlink="http://www.w3.org/1999/xlink" viewBox="0 0 80 104.04"><defs><style>.cls-1{fill:url(#linear-gradient);}.cls-2{fill:#fff;}</style><linearGradient id="linear-gradient" x1="6.4" y1="4.47" x2="74.35" y2="72.43" gradientUnits="userSpaceOnUse"><stop offset="0" stop-color="#e73385"/><stop offset="1" stop-color="#ff8d61"/><stop offset="1" stop-color="#ed6954"/></linearGradient></defs><g id="Layer_2" data-name="Layer 2"><g id="Layer_1-2" data-name="Layer 1"><path d="M2.06,97.9a10.49,10.49,0,0,0,2.38,2.54,5.24,5.24,0,0,0,3.21.91,5.16,5.16,0,0,0,1.8-.31,3.48,3.48,0,0,0,1.42-.89,2,2,0,0,0,.56-1.39,2.47,2.47,0,0,0-1.18-2.17A9.22,9.22,0,0,0,6.92,95.4a9.43,9.43,0,0,1-4.33-1.94,4.92,4.92,0,0,1-1.62-4,4.65,4.65,0,0,1,.93-2.89,6.26,6.26,0,0,1,2.47-1.89A8.25,8.25,0,0,1,7.67,84a8.38,8.38,0,0,1,4,.89,6.55,6.55,0,0,1,2.61,2.53l-2.11,2.09a6.35,6.35,0,0,0-1.89-2,4.61,4.61,0,0,0-2.67-.78A4.47,4.47,0,0,0,5,87.43a2.44,2.44,0,0,0,.05,4A9.8,9.8,0,0,0,8,92.5a14.45,14.45,0,0,1,3.12,1,7,7,0,0,1,2.4,1.8A4,4,0,0,1,14.43,98a5.54,5.54,0,0,1-1.89,4.42A7.63,7.63,0,0,1,7.34,104a9.23,9.23,0,0,1-4.1-.89A8.4,8.4,0,0,1,0,100.26Z"/><path d="M29.67,101.85h0a8.72,8.72,0,0,1-5.7,2.19,8.19,8.19,0,0,1-4-1,6.88,6.88,0,0,1-2.71-2.64,7.46,7.46,0,0,1-1-3.82,8.06,8.06,0,0,1,1-4.19A7.09,7.09,0,0,1,20,89.77a7.49,7.49,0,0,1,3.7-.94,6.39,6.39,0,0,1,3.34.91,6.58,6.58,0,0,1,2.39,2.49,7.44,7.44,0,0,1,.89,3.69l0,1.23H19.1a4.71,4.71,0,0,0,1.63,3.13,5.24,5.24,0,0,0,3.49,1.15,4.73,4.73,0,0,0,2.47-.57,11.82,11.82,0,0,0,1.56-1.1Zm-6-10.37a5.27,5.27,0,0,0-2.86.76,3.84,3.84,0,0,0-1.62,2.63h8.18v-.2A3.19,3.19,0,0,0,26.76,93a3.79,3.79,0,0,0-3.07-1.52Z"/><path d="M40.51,88.86a5,5,0,0,1,3.06.81,4.19,4.19,0,0,1,1.52,2.17,10,10,0,0,1,.43,3v8.9H42.66V95.06a6.15,6.15,0,0,0-.28-1.89,2.59,2.59,0,0,0-1-1.31,2.81,2.81,0,0,0-1.86-.38,4,4,0,0,0-2,.47,3.68,3.68,0,0,0-1.37,1.25,3.14,3.14,0,0,0-.5,1.72v8.85H32.87V89.17h2.86v2.31a6.16,6.16,0,0,1,2-1.83A5.34,5.34,0,0,1,40.51,88.86Z"/><path d="M53.39,103.77H50.52V92h-3V89.17h3V85.44h2.87v3.73h3.39V92H53.39Z"/><path d="M60.76,86a1.93,1.93,0,0,1-1.45-.5,1.86,1.86,0,0,1-.47-1.31,1.91,1.91,0,0,1,.47-1.25,1.81,1.81,0,0,1,1.45-.56,1.89,1.89,0,0,1,1.44.5,1.82,1.82,0,0,1,.48,1.31,1.87,1.87,0,0,1-.48,1.25A1.78,1.78,0,0,1,60.76,86Zm1.47,17.77H59.37V89.17h2.86Z"/><path d="M80,96.45a7.71,7.71,0,0,1-1,3.94,7.23,7.23,0,0,1-2.67,2.68,7.34,7.34,0,0,1-3.76,1,7.48,7.48,0,0,1-3.79-1,7.18,7.18,0,0,1-2.68-2.68,8.32,8.32,0,0,1,0-7.87,7.21,7.21,0,0,1,2.68-2.69,7.58,7.58,0,0,1,3.79-1,7.44,7.44,0,0,1,3.76,1A7.25,7.25,0,0,1,79,92.52,7.7,7.7,0,0,1,80,96.45Zm-2.92,0a5.22,5.22,0,0,0-.57-2.6,4.44,4.44,0,0,0-1.63-1.75,4.29,4.29,0,0,0-2.3-.62,4.42,4.42,0,0,0-2.33.62,4.47,4.47,0,0,0-1.64,1.75,5.22,5.22,0,0,0-.57,2.6A5.13,5.13,0,0,0,68.61,99a4.52,4.52,0,0,0,1.64,1.77,4.34,4.34,0,0,0,2.33.64,4.22,4.22,0,0,0,2.3-.64A4.5,4.5,0,0,0,76.51,99,5.13,5.13,0,0,0,77.08,96.45Z"/><rect class="cls-1" x="1.93" width="76.9" height="76.9" rx="15.23"/><path class="cls-2" d="M39.77,65.84c-15.51,0-18.18-9.64-18.29-10.05a1.34,1.34,0,0,1,2.6-.68c.09.35,2.39,8,15.69,8,13.47,0,16.82-7.86,17-8.2a1.34,1.34,0,0,1,2.49,1C59.06,56.35,55.16,65.84,39.77,65.84Z"/><path class="cls-2" d="M64.41,35.8A8,8,0,0,0,57,40.85c-.52-.06-2.13-.42-4.93-2.48a18.55,18.55,0,0,0,1.88-1.67l1.14-1.15c2.35-2.5,3.75-6.62,3.75-11,0-7.55-3.91-13.47-8.92-13.47S41,17,41,24.53A16.72,16.72,0,0,0,46.1,36.78c.47.46.93.89,1.37,1.29a16.54,16.54,0,0,1-14.2,0c.45-.41.91-.84,1.39-1.31a16.76,16.76,0,0,0,5.11-12.25c0-7.55-3.92-13.47-8.92-13.47S21.93,17,21.93,24.53c0,4.4,1.4,8.52,3.75,11l.73.78a19,19,0,0,0,2.31,2.1,12.11,12.11,0,0,1-4.25,2.38l-.67.12a8,8,0,1,0,.55,2.88c0-.08,0-.16,0-.24l.7-.14c1.21-.26,3.15-1.11,6-3.45a19.17,19.17,0,0,0,18.6,0c3.25,2.55,5.45,3.32,6.74,3.53,0,.11,0,.22,0,.33a8,8,0,1,0,8-8ZM16.34,49.13a5.32,5.32,0,1,1,5.32-5.32A5.33,5.33,0,0,1,16.34,49.13ZM30.85,36.66a15.88,15.88,0,0,1-2.48-2.17l-.73-.78c-1.89-2-3-5.45-3-9.18,0-5.84,2.85-10.78,6.23-10.78s6.23,4.94,6.23,10.78a14.13,14.13,0,0,1-4.3,10.33C32.09,35.53,31.45,36.13,30.85,36.66Zm19,0Q49,35.85,48,34.86a14.13,14.13,0,0,1-4.3-10.33c0-5.84,2.86-10.78,6.23-10.78s6.24,4.94,6.24,10.78c0,3.73-1.13,7.17-3,9.15L52,34.81A16.66,16.66,0,0,1,49.89,36.63Zm14.52,12.5a5.32,5.32,0,1,1,5.32-5.32A5.33,5.33,0,0,1,64.41,49.13Z"/></g></g></svg>