<svg xmlns="http://www.w3.org/2000/svg" xmlns:xlink="http://www.w3.org/1999/xlink" viewBox="0 0 241.88 70"><defs><style>.cls-1{fill:url(#linear-gradient);}.cls-2{fill:#fff;}</style><linearGradient id="linear-gradient" x1="4.07" y1="4.07" x2="65.93" y2="65.93" gradientUnits="userSpaceOnUse"><stop offset="0" stop-color="#e73385"/><stop offset="1" stop-color="#ff8d61"/><stop offset="1" stop-color="#ed6954"/></linearGradient></defs><g id="Layer_2" data-name="Layer 2"><g id="Layer_1-2" data-name="Layer 1"><path d="M84.46,44.46a21.25,21.25,0,0,0,4.8,5.14,10.73,10.73,0,0,0,6.49,1.83,10.89,10.89,0,0,0,3.65-.62,7.14,7.14,0,0,0,2.86-1.8,3.92,3.92,0,0,0,1.13-2.81A5,5,0,0,0,101,41.82a19,19,0,0,0-6.71-2.41,19.19,19.19,0,0,1-8.76-3.9c-2.17-1.86-3.26-4.54-3.26-8.06a9.37,9.37,0,0,1,1.88-5.84,12.3,12.3,0,0,1,5-3.82,16.53,16.53,0,0,1,6.69-1.35,16.85,16.85,0,0,1,8,1.8,13,13,0,0,1,5.27,5.11l-4.26,4.21a13,13,0,0,0-3.82-4.1,9.32,9.32,0,0,0-5.39-1.57,9,9,0,0,0-5.2,1.43,4.53,4.53,0,0,0-2.1,4,4.49,4.49,0,0,0,2.21,4.18,19.88,19.88,0,0,0,5.87,2.11,27.32,27.32,0,0,1,6.29,2.08,14,14,0,0,1,4.86,3.62,8,8,0,0,1,1.88,5.36,11.2,11.2,0,0,1-3.82,8.93q-3.81,3.31-10.5,3.31a18.82,18.82,0,0,1-8.28-1.79,17.16,17.16,0,0,1-6.55-5.84Z"/><path d="M140.23,52.44h-.06a16.25,16.25,0,0,1-4.94,3.09,17.46,17.46,0,0,1-14.69-.59,14,14,0,0,1-5.47-5.34,15.13,15.13,0,0,1-2-7.72,16.24,16.24,0,0,1,2.08-8.45,14.3,14.3,0,0,1,5.5-5.39,15.24,15.24,0,0,1,7.47-1.88A12.79,12.79,0,0,1,134.89,28a13.42,13.42,0,0,1,4.83,5,15,15,0,0,1,1.8,7.47L141.46,43H118.89a9.4,9.4,0,0,0,3.28,6.31,10.56,10.56,0,0,0,7,2.34,9.59,9.59,0,0,0,5-1.16,22.44,22.44,0,0,0,3.14-2.21ZM128.15,31.49A10.67,10.67,0,0,0,122.37,33a7.73,7.73,0,0,0-3.26,5.31h16.51V38a6.42,6.42,0,0,0-1.26-3.37,7.7,7.7,0,0,0-6.21-3.09Z"/><path d="M162.13,26.21a10.17,10.17,0,0,1,6.18,1.63,8.52,8.52,0,0,1,3.06,4.38,20.29,20.29,0,0,1,.87,6.12v18h-5.78V38.73a11.83,11.83,0,0,0-.57-3.81A5,5,0,0,0,164,32.28a5.68,5.68,0,0,0-3.76-.79,8.12,8.12,0,0,0-4,1A7.43,7.43,0,0,0,153.48,35a6.34,6.34,0,0,0-1,3.48V56.31h-5.78V26.83h5.78v4.66a12.39,12.39,0,0,1,3.93-3.68A10.63,10.63,0,0,1,162.13,26.21Z"/><path d="M188.13,56.31h-5.78V32.45h-6.12V26.83h6.12V19.3h5.78v7.53H195v5.62h-6.85Z"/><path d="M203,20.43a3.83,3.83,0,0,1-2.92-1,3.7,3.7,0,0,1-1-2.64,3.79,3.79,0,0,1,1-2.53A3.59,3.59,0,0,1,203,13.13a3.82,3.82,0,0,1,2.92,1,3.7,3.7,0,0,1,.95,2.64,3.82,3.82,0,0,1-.95,2.52A3.63,3.63,0,0,1,203,20.43Zm3,35.88h-5.78V26.83H206Z"/><path d="M241.88,41.54a15.6,15.6,0,0,1-2,8,14.46,14.46,0,0,1-5.39,5.42,14.9,14.9,0,0,1-7.61,2,15.05,15.05,0,0,1-7.63-2,14.46,14.46,0,0,1-5.42-5.42,15.6,15.6,0,0,1-2-8,15.58,15.58,0,0,1,2-7.94,14.39,14.39,0,0,1,5.42-5.42,15.06,15.06,0,0,1,7.63-2,14.91,14.91,0,0,1,7.61,2,14.38,14.38,0,0,1,5.39,5.42A15.58,15.58,0,0,1,241.88,41.54Zm-5.9,0a10.64,10.64,0,0,0-1.15-5.25,9,9,0,0,0-3.28-3.54,8.84,8.84,0,0,0-4.67-1.26,8.83,8.83,0,0,0-8,4.8,10.64,10.64,0,0,0-1.15,5.25,10.51,10.51,0,0,0,1.15,5.2,9.17,9.17,0,0,0,3.31,3.56,8.74,8.74,0,0,0,4.69,1.3,8.6,8.6,0,0,0,4.67-1.3,9.17,9.17,0,0,0,3.28-3.56A10.51,10.51,0,0,0,236,41.54Z"/><rect class="cls-1" width="70" height="70" rx="13.86"/><path class="cls-2" d="M34.45,59.93c-14.12,0-16.55-8.77-16.65-9.15a1.22,1.22,0,1,1,2.36-.62c.09.32,2.18,7.32,14.29,7.32S49.76,50.33,49.88,50a1.23,1.23,0,0,1,2.28.9C52,51.29,48.46,59.93,34.45,59.93Z"/><path class="cls-2" d="M56.88,32.59a7.29,7.29,0,0,0-6.77,4.6c-.47-.06-1.94-.39-4.48-2.26a17.53,17.53,0,0,0,1.71-1.52l1-1c2.13-2.27,3.41-6,3.41-10,0-6.88-3.56-12.26-8.12-12.26s-8.11,5.38-8.11,12.26a15.21,15.21,0,0,0,4.65,11.15c.43.42.84.81,1.25,1.18a15.08,15.08,0,0,1-12.93,0c.41-.37.83-.77,1.26-1.19a15.21,15.21,0,0,0,4.65-11.15c0-6.88-3.56-12.26-8.11-12.26s-8.12,5.38-8.12,12.26c0,4,1.28,7.76,3.41,10l.67.71A17.17,17.17,0,0,0,24.39,35a11.09,11.09,0,0,1-3.87,2.17l-.6.11a7.28,7.28,0,1,0,.49,2.62c0-.08,0-.15,0-.22l.64-.13c1.1-.24,2.86-1,5.5-3.13a17.44,17.44,0,0,0,16.93,0c3,2.33,5,3,6.13,3.22,0,.1,0,.2,0,.3a7.29,7.29,0,1,0,7.29-7.29ZM13.12,44.72A4.84,4.84,0,1,1,18,39.88,4.84,4.84,0,0,1,13.12,44.72ZM26.33,33.37a15,15,0,0,1-2.26-2l-.66-.72c-1.73-1.83-2.76-4.95-2.76-8.35,0-5.32,2.6-9.81,5.68-9.81S32,17,32,22.33a12.81,12.81,0,0,1-3.92,9.4C27.46,32.34,26.87,32.89,26.33,33.37Zm17.33,0q-.82-.72-1.74-1.62A12.81,12.81,0,0,1,38,22.33c0-5.32,2.6-9.81,5.67-9.81s5.68,4.49,5.68,9.81c0,3.4-1,6.52-2.73,8.33l-1,1A15.32,15.32,0,0,1,43.66,33.35ZM56.88,44.72a4.84,4.84,0,1,1,4.84-4.84A4.84,4.84,0,0,1,56.88,44.72Z"/></g></g></svg>